<?xml version="1.0" encoding="utf-8"?>
<!-- Generator: Adobe Illustrator 27.2.0, SVG Export Plug-In . SVG Version: 6.00 Build 0)  -->
<svg version="1.1" id="Capa_1" xmlns="http://www.w3.org/2000/svg" xmlns:xlink="http://www.w3.org/1999/xlink" x="0px" y="0px"
	 viewBox="0 0 300 300" style="enable-background:new 0 0 300 300;" xml:space="preserve">
<style type="text/css">
	.st0{fill:#6B7280;}
	.st1{fill:#1F2937;}
</style>
<rect y="0" class="st0" width="300" height="300"/>
<g>
	<path class="st1" d="M77.2,143.3l6.3-31.4h1.9l16.5,28.7l-0.8-0.2l5.7-28.5h2.3l-6.3,31.4h-1.9l-16.4-28.7l0.8,0.2l-5.7,28.5H77.2z
		"/>
	<path class="st1" d="M123,143.4c-2.1,0-3.9-0.4-5.5-1.2c-1.6-0.8-2.8-1.9-3.6-3.4s-1.3-3.2-1.3-5.2c0-2.7,0.6-5.1,1.7-7.2
		c1.2-2.1,2.7-3.8,4.8-5c2-1.2,4.3-1.8,6.9-1.8c2.1,0,4,0.4,5.5,1.2c1.5,0.8,2.7,1.9,3.6,3.4c0.9,1.5,1.3,3.2,1.3,5.2
		c0,2.7-0.6,5.1-1.7,7.2c-1.2,2.1-2.7,3.8-4.8,5S125.6,143.4,123,143.4z M123.2,141.4c2.1,0,4-0.5,5.7-1.5c1.6-1,2.9-2.4,3.9-4.2
		c1-1.8,1.4-3.9,1.4-6.1c0-2.5-0.7-4.5-2.2-5.8c-1.5-1.4-3.5-2-6.1-2c-2.1,0-4,0.5-5.6,1.5c-1.7,1-3,2.4-3.9,4.2
		c-1,1.8-1.4,3.8-1.4,6.1c0,2.5,0.7,4.4,2.2,5.8C118.5,140.7,120.6,141.4,123.2,141.4z"/>
	<path class="st1" d="M73.8,183.3l6.3-31.4H89l-6.3,31.4H73.8z"/>
	<path class="st1" d="M124.6,158.5c1.9,0,3.6,0.4,5.1,1.3c1.4,0.9,2.4,2.1,3,3.8c0.6,1.7,0.6,3.7,0.1,6.2l-2.6,13.5h-8.5l2.5-12.6
		c0.4-1.6,0.3-2.9-0.2-3.7c-0.5-0.8-1.4-1.2-2.5-1.2c-1.3,0-2.4,0.4-3.3,1.2c-0.9,0.8-1.5,2.2-1.9,4l-2.5,12.3h-8.5l2.5-12.6
		c0.3-1.6,0.2-2.9-0.3-3.7c-0.5-0.8-1.4-1.2-2.6-1.2c-1.3,0-2.4,0.4-3.3,1.3s-1.5,2.2-1.9,4.1l-2.4,12.2h-8.5l4.8-24.4h8l-1.1,5.7
		l-1.3-0.8c1.1-1.8,2.5-3.1,4.1-4c1.6-0.9,3.3-1.3,5.1-1.3c1.4,0,2.7,0.3,3.9,0.8c1.2,0.5,2.2,1.3,3,2.4c0.8,1.1,1.2,2.4,1.4,4
		l-2.7-0.8c1.1-2.1,2.6-3.7,4.4-4.8C120.2,159,122.3,158.5,124.6,158.5z"/>
	<path class="st1" d="M146.7,183.7c-1.7,0-3.4-0.4-5-1.3c-1.6-0.9-2.8-2.1-3.8-3.8c-1-1.6-1.5-3.7-1.5-6c0-2,0.3-3.9,1-5.6
		c0.7-1.7,1.6-3.2,2.9-4.5c1.2-1.3,2.6-2.3,4.2-3c1.6-0.7,3.3-1.1,5.1-1.1c2,0,3.7,0.4,5.1,1.2c1.4,0.8,2.4,2,3.1,3.7
		c0.7,1.7,0.8,4,0.5,6.8c-0.3,2.8-0.9,5.2-1.9,7.2c-1,2-2.3,3.6-4,4.7S149,183.7,146.7,183.7z M149.8,176.8c1.1,0,2.1-0.3,3-0.9
		c0.9-0.6,1.5-1.4,2-2.4c0.5-1,0.7-2.2,0.7-3.6c0-1.4-0.4-2.5-1.2-3.3c-0.8-0.9-1.9-1.3-3.4-1.3c-1.1,0-2.1,0.3-3,0.9
		c-0.9,0.6-1.6,1.4-2.1,2.4s-0.7,2.2-0.7,3.6c0,1.4,0.4,2.5,1.2,3.4C147.1,176.4,148.3,176.8,149.8,176.8z M153.4,183.3l0.8-4.1
		l1.6-8.1l1.1-8l0.8-4.2h8.5l-4.8,24.4H153.4z"/>
	<path class="st1" d="M177.9,192.4c-2.4,0-4.6-0.3-6.6-0.8c-2-0.5-3.7-1.3-5.2-2.4l3.8-5.9c1,0.7,2.2,1.4,3.7,1.8s3,0.7,4.6,0.7
		c2.2,0,3.9-0.5,4.9-1.4c1-1,1.8-2.3,2.1-4l0.8-3.8l1.7-6.3l1.3-6.8l0.9-4.5h8.1l-4,19.9c-0.9,4.8-2.8,8.3-5.5,10.4
		S182.2,192.4,177.9,192.4z M178.5,182c-1.9,0-3.6-0.4-5.2-1.2s-2.9-2-3.9-3.5c-1-1.5-1.5-3.4-1.5-5.5c0-1.9,0.3-3.6,1-5.2
		c0.7-1.6,1.6-3,2.8-4.2c1.2-1.2,2.6-2.2,4.2-2.8c1.6-0.7,3.3-1,5.2-1c1.8,0,3.4,0.3,4.8,1s2.4,1.8,3.1,3.4c0.7,1.6,0.9,3.8,0.5,6.5
		c-0.3,2.7-0.9,4.9-1.9,6.8s-2.2,3.3-3.8,4.3S180.5,182,178.5,182z M181,175.2c1.1,0,2.1-0.2,3-0.7c0.9-0.5,1.5-1.2,2-2.1
		c0.5-0.9,0.7-1.9,0.7-3c0-1.2-0.4-2.2-1.2-2.9c-0.8-0.7-1.9-1.1-3.3-1.1c-1.1,0-2.1,0.2-3,0.7c-0.9,0.5-1.5,1.2-2,2.1
		c-0.5,0.9-0.7,1.9-0.7,3.1c0,1.2,0.4,2.2,1.2,2.9C178.5,174.8,179.6,175.2,181,175.2z"/>
	<path class="st1" d="M212.3,183.7c-2.6,0-4.9-0.5-6.8-1.4c-1.9-0.9-3.5-2.2-4.5-3.9c-1.1-1.7-1.6-3.6-1.6-5.9
		c0-2.7,0.6-5.1,1.9-7.2c1.2-2.1,3-3.8,5.2-5c2.2-1.2,4.8-1.8,7.7-1.8c2.5,0,4.6,0.5,6.4,1.4c1.8,0.9,3.2,2.2,4.1,3.7
		c1,1.6,1.4,3.5,1.4,5.7c0,0.7-0.1,1.3-0.2,2c-0.1,0.7-0.2,1.3-0.3,1.9H206l0.8-4.5h14.8l-3.5,1.3c0.3-1.2,0.2-2.1-0.1-2.9
		c-0.3-0.8-0.9-1.4-1.6-1.8c-0.7-0.4-1.6-0.7-2.7-0.7c-1.4,0-2.5,0.4-3.4,1.1c-0.9,0.7-1.5,1.6-2,2.8c-0.4,1.2-0.7,2.4-0.7,3.8
		c0,1.7,0.5,2.9,1.4,3.7c0.9,0.8,2.3,1.2,4.2,1.2c1.1,0,2.1-0.2,3.2-0.5c1-0.3,1.9-0.8,2.7-1.5l3.6,5.3c-1.5,1.1-3.2,1.9-5,2.4
		C215.9,183.4,214.1,183.7,212.3,183.7z"/>
</g>
</svg>
