<?xml version="1.0" encoding="utf-8"?>
<!-- Generator: Adobe Illustrator 27.2.0, SVG Export Plug-In . SVG Version: 6.00 Build 0)  -->
<svg version="1.1" id="Capa_1" xmlns="http://www.w3.org/2000/svg" xmlns:xlink="http://www.w3.org/1999/xlink" x="0px" y="0px"
	 viewBox="0 0 169.2 64.1" style="enable-background:new 0 0 169.2 64.1;" xml:space="preserve">
<style type="text/css">
	.st0{fill:#FFFFFF;}
</style>
<g>
	<path class="st0" d="M39.7,42V22h9.2v3.4h-5.1v5.1h4.8v3.2h-4.8V42H39.7z M52.6,22.1h4.1v20h-4.1V22.1z M33,42.2
		c-5.5,0-8-4.2-8-9.9c0-7.5,4.4-10.5,8.6-10.5c1.4,0,2.5,0.3,2.9,0.5l-0.7,3.3c-0.5-0.2-1-0.4-1.9-0.4c-2.3,0-4.4,1.9-4.4,6.8
		c0,4.8,1.9,6.6,4.4,6.6c0.7,0,1.5-0.1,2-0.3l0.4,3.3C35.5,42,34.4,42.2,33,42.2 M42.1,8.7C29.2,8.7,18.7,19.2,18.7,32
		c0,12.9,10.4,23.3,23.3,23.3S65.3,44.9,65.3,32C65.4,19.2,54.9,8.7,42.1,8.7"/>
	<path class="st0" d="M70.5,34.4c-0.6,6.9-3.6,13.1-8.3,17.7C57,57.3,49.9,60.5,42,60.5s-15-3.2-20.2-8.4
		c-4.6-4.6-7.7-10.8-8.3-17.7c-0.1,0-0.3,0-0.4,0s-0.2,0-0.2,0c1.3,15,13.8,26.7,29.1,26.7s27.8-11.7,29.1-26.7c-0.1,0-0.1,0-0.2,0
		C70.8,34.4,70.6,34.4,70.5,34.4"/>
	<path class="st0" d="M71.2,30c0.1,0.7,0.1,1.4,0.1,2.2h-0.7c0-0.7,0-1.4-0.1-2.2c-1,0.2-1.8,1.1-1.8,2.2c0,1.1,0.8,1.9,1.8,2.2
		c0.1,0,0.3,0,0.4,0c0.1,0,0.2,0,0.2,0c1.1-0.1,2-1,2-2.2C73.1,31.1,72.3,30.2,71.2,30"/>
	<path class="st0" d="M42.1,3C26.6,3,14,14.9,12.9,30c-0.1,0.7-0.1,1.4-0.1,2.2h0.7c0-0.7,0-1.4,0.1-2.2c0.5-7,3.6-13.3,8.3-18
		c5.2-5.2,12.3-8.4,20.2-8.4s15,3.2,20.2,8.4c4.7,4.7,7.8,11,8.3,18c0.1,0.7,0.1,1.4,0.1,2.2h0.7c0-0.7,0-1.5-0.1-2.2
		C70.1,14.9,57.5,3,42.1,3"/>
	<g>
		<g>
			<g>
				<g>
					<path class="st0" d="M81.4,30c-0.2,0.1-0.7,0.2-1.3,0.2c-2.2,0-3.3-1.7-3.3-4c0-3.1,1.8-4.3,3.5-4.3c0.6,0,1,0.1,1.2,0.2
						l-0.3,1.3c-0.2-0.1-0.4-0.2-0.8-0.2c-1,0-1.8,0.8-1.8,2.8c0,1.9,0.8,2.7,1.8,2.7c0.3,0,0.6-0.1,0.8-0.1L81.4,30z"/>
					<path class="st0" d="M87.6,25.9c0,3.1-1.2,4.3-2.8,4.3c-2,0-2.7-2-2.7-4.2s0.9-4.1,2.9-4.1C87,21.8,87.6,24,87.6,25.9z
						 M83.8,26c0,1.8,0.4,2.8,1.1,2.8c0.7,0,1-1.2,1-2.9c0-1.4-0.2-2.7-1-2.7C84.2,23.2,83.8,24.2,83.8,26z"/>
					<path class="st0" d="M88.9,30.1V22h1.5l1.3,3.2c0.3,0.6,0.7,1.7,0.9,2.4l0,0c-0.1-0.9-0.2-2.3-0.2-3.8V22h1.5v8.1h-1.5L91.1,27
						c-0.3-0.7-0.7-1.7-0.9-2.5l0,0c0.1,0.8,0.1,2.1,0.1,3.7V30L88.9,30.1L88.9,30.1z"/>
					<path class="st0" d="M95.5,28.5c0.3,0.2,1,0.3,1.4,0.3c0.8,0,1.2-0.4,1.2-0.9c0-0.6-0.4-0.9-1.1-1.3c-1.2-0.7-1.6-1.5-1.6-2.3
						c0-1.3,0.9-2.4,2.7-2.4c0.6,0,1.1,0.1,1.4,0.3l-0.3,1.4c-0.2-0.1-0.6-0.3-1.1-0.3c-0.7,0-1.1,0.4-1.1,0.8
						c0,0.5,0.3,0.7,1.2,1.3c1.2,0.7,1.6,1.5,1.6,2.3c0,1.5-1.2,2.5-2.9,2.5c-0.7,0-1.4-0.2-1.7-0.3L95.5,28.5z"/>
					<path class="st0" d="M104.7,26.5h-2v2.2h2.2v1.4H101V22h3.8v1.4h-2.1v1.9h2V26.5z"/>
					<path class="st0" d="M107.3,21.9h1.7v5.5c0,2.3-1.2,2.7-2.4,2.7c-0.3,0-0.7,0-0.8-0.1l0.1-1.3c0.2,0,0.3,0.1,0.6,0.1
						c0.5,0,0.9-0.2,0.9-1.2v-5.7H107.3z"/>
					<path class="st0" d="M115.8,25.9c0,3.1-1.2,4.3-2.8,4.3c-2,0-2.7-2-2.7-4.2s0.9-4.1,2.9-4.1C115.2,21.8,115.8,24,115.8,25.9z
						 M112,26c0,1.8,0.4,2.8,1.1,2.8c0.7,0,1-1.2,1-2.9c0-1.4-0.2-2.7-1-2.7C112.3,23.2,112,24.2,112,26z"/>
					<path class="st0" d="M119.6,21.9h3.8v1.4h-2.1v2.1h2v1.3h-2v3.4h-1.7V21.9z"/>
					<path class="st0" d="M128.4,26.5h-2v2.2h2.2v1.4h-3.9V22h3.8v1.4h-2.1v1.9h2V26.5z"/>
					<path class="st0" d="M130,22.1c0.4-0.1,1-0.2,1.7-0.2c1.1,0,1.9,0.2,2.4,0.7c0.7,0.6,1.1,1.7,1.1,3.3c0,1.6-0.5,2.8-1.2,3.4
						c-0.6,0.5-1.4,0.8-2.6,0.8c-0.5,0-1.1,0-1.4-0.1V22.1z M131.7,28.8c0.1,0,0.2,0,0.3,0c0.8,0,1.5-0.7,1.5-3
						c0-1.7-0.5-2.7-1.5-2.7c-0.1,0-0.2,0-0.3,0V28.8z"/>
					<path class="st0" d="M140.2,26.5h-2v2.2h2.2v1.4h-3.9V22h3.8v1.4h-2.1v1.9h2V26.5z"/>
					<path class="st0" d="M141.8,22.1c0.5-0.1,1.2-0.2,1.8-0.2c0.9,0,1.8,0.1,2.3,0.6c0.5,0.4,0.7,1,0.7,1.7c0,0.9-0.5,1.7-1.3,2
						l0,0c0.6,0.2,0.9,0.7,1.1,1.6s0.4,1.9,0.6,2.2h-1.8c-0.1-0.2-0.3-1.1-0.4-2c-0.2-1-0.4-1.3-1-1.3h-0.3v3.2h-1.7L141.8,22.1
						L141.8,22.1z M143.5,25.6h0.3c0.7,0,1.1-0.6,1.1-1.3c0-0.7-0.3-1.2-1-1.2c-0.2,0-0.3,0-0.4,0V25.6L143.5,25.6z"/>
					<path class="st0" d="M149.8,28.2l-0.4,1.9h-1.6l1.9-8.1h2l1.7,8.1h-1.6l-0.4-1.9H149.8z M151.2,27l-0.3-1.7
						c-0.1-0.5-0.2-1.3-0.3-1.8l0,0c-0.1,0.5-0.2,1.4-0.3,1.8L150,27H151.2z"/>
					<path class="st0" d="M154.4,21.9h1.7v6.8h2.2V30h-3.9V21.9z"/>
					<path class="st0" d="M77.3,34.1c0.4-0.1,1-0.2,1.7-0.2c1.1,0,1.9,0.2,2.4,0.7c0.7,0.6,1.1,1.7,1.1,3.3s-0.4,2.8-1.2,3.4
						c-0.6,0.5-1.4,0.8-2.6,0.8c-0.5,0-1.1,0-1.4-0.1V34.1z M79,40.9c0.1,0,0.2,0,0.3,0c0.8,0,1.5-0.7,1.5-3c0-1.7-0.5-2.7-1.5-2.7
						c-0.1,0-0.2,0-0.3,0V40.9z"/>
					<path class="st0" d="M87.5,38.6h-2v2.2h2.2v1.4h-3.9V34h3.8v1.4h-2.1v1.9h2V38.6z"/>
					<path class="st0" d="M93.4,34v8.1h-1.7V34H93.4z"/>
					<path class="st0" d="M95.1,42.2V34h1.5l1.3,3.2c0.3,0.6,0.7,1.7,0.9,2.4l0,0c-0.1-0.9-0.2-2.3-0.2-3.8V34h1.5v8.1h-1.5L97.3,39
						c-0.3-0.7-0.7-1.7-0.9-2.5l0,0c0.1,0.8,0.1,2.1,0.1,3.7V42h-1.4V42.2z"/>
					<path class="st0" d="M103.3,42.2l-1.9-8.1h1.9l0.6,3.5c0.1,0.9,0.3,1.9,0.4,2.8l0,0c0.1-1,0.3-1.9,0.4-2.9l0.6-3.5h1.9l-2,8.1
						h-1.9V42.2z"/>
					<path class="st0" d="M111.9,38.6h-2v2.2h2.2v1.4h-3.9V34h3.8v1.4h-2.1v1.9h2V38.6z"/>
					<path class="st0" d="M113.6,34.1c0.5-0.1,1.2-0.2,1.8-0.2c0.9,0,1.8,0.1,2.3,0.6c0.5,0.4,0.7,1,0.7,1.7c0,0.9-0.5,1.7-1.3,2
						l0,0c0.6,0.2,0.9,0.7,1.1,1.6c0.2,0.9,0.4,1.9,0.6,2.2H117c-0.1-0.2-0.3-1.1-0.4-2c-0.2-1-0.4-1.3-1-1.3h-0.3V42h-1.7
						L113.6,34.1L113.6,34.1z M115.3,37.7h0.3c0.7,0,1.1-0.6,1.1-1.3s-0.3-1.2-1-1.2c-0.2,0-0.3,0-0.4,0L115.3,37.7L115.3,37.7z"/>
					<path class="st0" d="M119.9,40.5c0.3,0.2,0.9,0.3,1.4,0.3c0.8,0,1.2-0.4,1.2-0.9c0-0.6-0.4-0.9-1.1-1.3
						c-1.2-0.7-1.6-1.5-1.6-2.3c0-1.3,0.9-2.4,2.7-2.4c0.6,0,1.1,0.1,1.4,0.3l-0.3,1.4c-0.2-0.1-0.6-0.3-1.1-0.3
						c-0.7,0-1.1,0.4-1.1,0.8c0,0.5,0.3,0.7,1.2,1.3c1.2,0.7,1.6,1.5,1.6,2.3c0,1.5-1.2,2.5-2.9,2.5c-0.7,0-1.4-0.2-1.7-0.3
						L119.9,40.5z"/>
					<path class="st0" d="M127.1,34v8.1h-1.7V34H127.1z"/>
					<path class="st0" d="M134.1,37.9c0,3.1-1.2,4.3-2.8,4.3c-2,0-2.7-2-2.7-4.2s0.9-4.1,2.9-4.1S134.1,36.1,134.1,37.9z
						 M130.3,38.1c0,1.8,0.4,2.8,1.1,2.8s1-1.2,1-2.9c0-1.4-0.2-2.7-1-2.7C130.6,35.3,130.3,36.3,130.3,38.1z"/>
					<path class="st0" d="M135.4,42.2V34h1.5l1.3,3.2c0.3,0.6,0.7,1.7,0.9,2.4l0,0c-0.1-0.9-0.2-2.3-0.2-3.8V34h1.5v8.1h-1.5
						l-1.3-3.1c-0.3-0.7-0.7-1.7-0.9-2.5l0,0c0.1,0.8,0.1,2.1,0.1,3.7V42h-1.4V42.2z"/>
					<path class="st0" d="M146,38.6h-2v2.2h2.2v1.4h-3.9V34h3.8v1.4H144v1.9h2V38.6z"/>
					<path class="st0" d="M147.5,40.5c0.3,0.2,1,0.3,1.4,0.3c0.8,0,1.2-0.4,1.2-0.9c0-0.6-0.4-0.9-1.1-1.3c-1.2-0.7-1.6-1.5-1.6-2.3
						c0-1.3,0.9-2.4,2.7-2.4c0.6,0,1.1,0.1,1.4,0.3l-0.3,1.4c-0.2-0.1-0.6-0.3-1.1-0.3c-0.7,0-1.1,0.4-1.1,0.8
						c0,0.5,0.3,0.7,1.2,1.3c1.2,0.7,1.6,1.5,1.6,2.3c0,1.5-1.2,2.5-2.9,2.5c-0.7,0-1.4-0.2-1.7-0.3L147.5,40.5z"/>
				</g>
			</g>
		</g>
	</g>
	<path class="st0" d="M13.4,30c0.1,0.7,0.1,1.4,0.1,2.2h-0.7c0-0.7,0-1.4-0.1-2.2c-1,0.2-1.8,1.1-1.8,2.2c0,1.1,0.8,1.9,1.8,2.2
		c0.1,0,0.3,0,0.4,0s0.2,0,0.2,0c1.1-0.1,2-1,2-2.2C15.3,31.1,14.5,30.2,13.4,30"/>
</g>
</svg>
