<?xml version="1.0" encoding="UTF-8"?>
<svg id="Capa_1" data-name="Capa 1" xmlns="http://www.w3.org/2000/svg" viewBox="0 0 756.44 305.38">
  <defs>
    <style>
      .cls-1 {
        fill: #003795;
      }

      .cls-2 {
        fill: #eaac13;
      }
    </style>
  </defs>
  <g>
    <path class="cls-1" d="m756.44,106.44c-.22.57-.54,1.13-.66,1.72-2.94,15.01-12.36,24.46-26.13,29.88-14.96,5.88-30.66,7.84-46.64,7.87-20.73.04-41.46.02-62.2,0-4.59,0-4.61-.03-4.61-4.48,0-28.72,0-57.45,0-86.17,0-4.16.03-4.19,4.12-4.19,22.36,0,44.71-.15,67.07.06,15.01.14,29.48,3.23,43.23,9.43,13.89,6.26,22.44,16.68,25.14,31.76.13.72.44,1.42.67,2.12,0,4,0,8,0,12Zm-100.95-7.63c0,8.5.08,16.99-.05,25.49-.04,2.71.73,3.82,3.6,3.72,5.24-.19,10.5-.24,15.74,0,8.61.38,16.5-1.98,24.23-5.47,5.97-2.69,10.24-7,13.38-12.61,6.29-11.24,4.33-22.36-6.27-29.67-5.23-3.61-11.43-6.12-17.51-8.16-9.53-3.19-19.57-1.59-29.41-1.97-3.06-.12-3.82,1.12-3.78,3.95.14,8.24.05,16.49.05,24.74Z"/>
    <path class="cls-1" d="m431.41,99.64c3.47.25,6.94.45,10.4.77,9.33.85,15.57,5.63,18.26,14.7,2.77,9.32,5.39,18.68,8.15,28.01.59,2,.02,2.8-2.02,2.8-12.37-.01-24.74-.05-37.11.03-2.44.01-2.83-1.55-3.24-3.3-1.86-7.9-3.74-15.79-5.58-23.69-1.34-5.78-2.7-7.47-8.75-7.93-7.95-.6-15.96-.49-23.94-.73-2.5-.08-2.39,1.57-2.39,3.25,0,9.25,0,18.49,0,27.74,0,4.62-.02,4.65-4.44,4.66-10.25.02-20.49-.08-30.73.05-2.94.04-4.18-.64-4.17-3.93.12-28.99.11-57.97.01-86.96-.01-3.07.87-4.1,4.02-4.08,22.86.12,45.73-.09,68.59.14,11.17.11,22.13,2.05,32.6,6.13,2.43.95,4.72,2.28,7.06,3.44,10.73,5.3,10.6,20.11,3.15,27.08-7.87,7.37-17.38,9.95-27.58,11.16-.73.09-1.47.11-2.2.16l-.1.54Zm-32.6-8.3s0-.02,0-.03c3.25,0,6.55.38,9.73-.09,4.14-.61,8.33-1.52,12.23-3,3.22-1.23,4.83-4.24,4.82-7.83,0-3.51-2.32-5.45-5.12-6.76-2.24-1.05-4.66-2.18-7.06-2.34-8.58-.58-17.19-.75-25.78-1.09-2.06-.08-2.46,1.16-2.45,2.89.04,5.12.1,10.25-.03,15.37-.06,2.4,1,2.98,3.15,2.91,3.49-.12,7-.03,10.5-.03Z"/>
    <path class="cls-1" d="m433.47,219.6c2.63.56,4.66,1.1,6.72,1.42,5.7.88,10.55,3.55,15.31,6.67,10.47,6.87,8.46,23.53-.23,29.37-6.17,4.15-12.98,6.54-20.18,7.56-7.9,1.12-15.88,2.05-23.85,2.17-20.36.31-40.74.12-61.1.12-4.17,0-4.21-.03-4.21-4.12-.01-27.99-.01-55.98,0-83.97,0-4.11.04-4.15,4.18-4.15,19.62,0,39.24-.09,58.86.06,11.27.09,22.51.95,33.3,4.47,4.1,1.34,8.04,3.4,11.73,5.66,8.46,5.18,7.14,20.6.49,24.9-3.24,2.09-6.38,4.42-9.84,6.06-3.32,1.58-6.99,2.41-11.17,3.79Zm-34.41,8.88c0,.09-.01.19-.02.28-3.74,0-7.49.06-11.23-.03-1.95-.05-2.65.77-2.62,2.66.06,4.99.12,9.99-.03,14.98-.08,2.53.96,3.21,3.31,3.16,5.49-.12,11.03.38,16.46-.18,4.63-.48,9.41-1.5,13.66-3.34,5.59-2.43,6.29-8.45,1.68-12.49-2.16-1.89-5.04-3.47-7.83-4.02-4.36-.86-8.91-.73-13.38-1.02Zm-.88-17.15c.01.15.03.29.04.44,5.32-.48,10.68-.71,15.95-1.53,2.98-.46,5.79-1.96,6.22-5.57.57-4.81-.84-7.52-5.08-9.32-2.04-.87-4.28-1.6-6.47-1.7-6.98-.31-13.97-.28-20.95-.41-1.85-.04-2.74.67-2.71,2.63.07,4.24.09,8.49-.02,12.73-.05,2.15.86,2.83,2.9,2.77,3.37-.1,6.74-.03,10.11-.03Z"/>
    <path class="cls-1" d="m731.02,202.37c-5.25,0-10.49-.05-15.74.03-1.91.03-2.96-.46-3.25-2.6-.53-3.89-2.98-6.14-6.75-7.11-6.53-1.67-13.09-2.04-19.65-.42-2.01.5-4.06,1.41-5.72,2.64-3.25,2.41-3.39,6.64-.05,8.88,2.95,1.98,6.34,3.74,9.77,4.46,7.8,1.65,15.77,2.45,23.62,3.89,7.11,1.31,14.22,2.77,21.2,4.64,5.99,1.6,11.28,4.71,15.5,9.4,7.78,8.66,7.29,20.21-1.27,28.09-6.12,5.64-13.53,9.04-21.49,10.96-22.76,5.5-45.6,5.22-68.21-.65-5.29-1.37-10.35-4.35-14.94-7.44-5.55-3.74-8.05-9.67-8.88-16.29-.28-2.26.35-3.2,2.74-3.18,10.37.07,20.74-.01,31.11.1.99.01,2.55.74,2.86,1.53,2.84,7.12,8.65,10.26,15.61,11.29,6.54.97,13.22,1.16,19.55-1.56,1.49-.64,2.98-1.32,4.33-2.2,5.03-3.29,5.06-8.78-.43-11.07-5.35-2.23-11.14-3.57-16.86-4.69-10.28-2.01-20.71-3.31-30.97-5.4-7.67-1.56-14.38-5.27-20.6-10.21-8.72-6.93-7.55-22.69-.5-28.02,4.23-3.2,8.69-6.77,13.63-8.24,23.55-7.03,47.56-9.05,71.76-3.6,4.88,1.1,9.65,3.48,13.95,6.12,6.49,3.99,8.99,10.38,8.78,17.95-.06,2.21-.96,2.75-2.96,2.72-5.37-.08-10.74-.03-16.12-.03Z"/>
    <path class="cls-1" d="m540.01,51.06c16.49,0,32.99,0,49.48,0,4.48,0,4.49.03,4.5,4.61.01,3.5-.17,7.01.05,10.49.21,3.13-.95,4.08-4.04,4.06-15.12-.13-30.24-.06-45.36-.05-4.75,0-9.5.1-14.24-.03-2.54-.07-3.58.77-3.47,3.43.17,4.24.21,8.5-.01,12.74-.15,2.84.85,3.6,3.62,3.58,18.12-.11,36.23-.06,54.35-.05q5.09,0,5.1,5.02c0,3.25-.13,6.5.04,9.74.13,2.49-.83,3.31-3.24,3.26-5.25-.11-10.5-.03-15.74-.03-13.49,0-26.99.06-40.48-.05-2.75-.02-3.78.75-3.64,3.6.22,4.36.23,8.75,0,13.11-.16,2.93,1.03,3.55,3.7,3.53,19.12-.09,38.23-.05,57.35-.05,1.12,0,2.25.07,3.37,0,1.93-.1,2.68.81,2.65,2.69-.05,4.25-.04,8.5,0,12.74.02,1.74-.77,2.52-2.47,2.49-.87-.02-1.75.02-2.62.02-32.49,0-64.97,0-97.46,0q-5.21,0-5.22-5.37c0-28.24,0-56.48,0-84.72,0-4.76.01-4.77,4.68-4.77,16.37,0,32.74,0,49.11,0Z"/>
    <path class="cls-1" d="m483.16,206.98c0-9.5.08-18.99-.05-28.49-.04-2.87.79-3.94,3.81-3.89,9.87.16,19.74.05,29.61.06,4.36,0,4.38.02,4.39,4.28.01,16.74-.01,33.48,0,50.23.02,13.23,8.12,21.57,21.37,21.79,4.73.08,9.51-.02,14.19-.62,5.17-.66,9.74-3.07,13.61-6.63,3.29-3.02,4.99-6.65,4.96-11.26-.1-17.87-.05-35.73-.03-53.6,0-4.16.03-4.18,4.11-4.19,10.24-.02,20.49.06,30.73-.05,2.54-.03,3.52.72,3.51,3.39-.1,18.62.05,37.23-.13,55.85-.08,8.63-3.99,15.61-10.6,21.07-8.26,6.81-18.12,10-28.41,11.79-19.53,3.4-39.06,3.23-58.42-1.29-9.22-2.15-17.82-5.85-24.65-12.72-5.22-5.26-8.2-11.47-8.04-19.11.18-8.87.04-17.74.04-26.61Z"/>
  </g>
  <rect class="cls-2" x="102.69" y="106.69" width="100" height="92"/>
  <g>
    <path class="cls-1" d="m92.77,12.21C38.23,35.51,0,89.63,0,152.69c0,16.03,2.48,31.48,7.06,46h85.71V12.21Z"/>
    <path class="cls-1" d="m295.7,99.08C273.98,41.2,218.15,0,152.69,0c-17.51,0-34.33,2.96-50,8.38v90.69h193Z"/>
    <path class="cls-1" d="m305.38,152.69c0-16.03-2.48-31.48-7.06-46h-86.13v186.66c54.77-23.2,93.19-77.44,93.19-140.66Z"/>
    <path class="cls-1" d="m10.51,208.46c22.28,56.75,77.54,96.92,142.18,96.92,17.51,0,34.33-2.96,50-8.38v-88.54H10.51Z"/>
  </g>
</svg>