<?xml version="1.0" encoding="utf-8"?>
<!-- Generator: Adobe Illustrator 24.0.2, SVG Export Plug-In . SVG Version: 6.00 Build 0)  -->
<svg version="1.1" id="Layer_1" xmlns="http://www.w3.org/2000/svg" xmlns:xlink="http://www.w3.org/1999/xlink" x="0px" y="0px"
	 viewBox="0 0 719.5 213.9" style="enable-background:new 0 0 719.5 213.9;" xml:space="preserve">
<style type="text/css">
	.st0{fill:#FFFFFF;stroke:#FFFFFF;stroke-width:4.7099;stroke-miterlimit:10;}
	.st1{fill:#222222;}
	.st2{fill:#EF8024;}
</style>
<g>
	<circle class="st0" cx="60.21" cy="106.95" r="41.03"/>
	<g>
		<path class="st1" d="M137.91,131.58c-5.55,0-10.87,0-16.6,0c6.48-16.61,13.04-32.91,19.54-49.35c0.75-0.05,1.44-0.13,2.13-0.13
			c5.96-0.01,11.92-0.02,17.88,0c4.3,0.01,6.34,1.72,6.92,6.01c1.1,8.15,2.09,16.32,3.14,24.47c0.13,0.99,0.33,1.97,0.59,3.47
			c0.93-0.81,1.59-1.29,2.13-1.87c7.1-7.53,14.18-15.08,21.27-22.62c2.09-2.23,4.22-4.43,6.27-6.7c1.74-1.92,3.83-2.83,6.45-2.8
			c5.88,0.07,11.76,0.02,17.65,0.03c0.61,0,1.23,0.08,2.22,0.16c-6.56,16.55-13.05,32.89-19.56,49.31c-5.55,0-11.02,0-16.86,0
			c1.3-4.07,3.07-7.78,4.58-11.57c1.5-3.79,3.07-7.54,4.61-11.31c1.56-3.83,3.13-7.65,4.69-11.48c-0.13-0.11-0.25-0.21-0.38-0.32
			c-0.55,0.54-1.12,1.05-1.64,1.61c-7.44,7.86-14.9,15.7-22.29,23.6c-1.28,1.37-2.6,1.98-4.49,1.95
			c-5.57-0.11-11.14-0.04-16.71-0.04c-0.77,0-1.53,0-2.56,0c-1.3-9.49-2.57-18.78-3.84-28.06
			C147.63,107.65,142.91,119.6,137.91,131.58z"/>
		<path class="st1" d="M273.09,108.49c0.45-1.04,0.87-2.02,1.43-3.34c-12.88,0-25.46,0-38.26,0c0.18-0.81,0.24-1.33,0.43-1.81
			c0.7-1.83,1.38-3.67,2.18-5.45c0.98-2.19,2.7-3.4,5.14-3.5c0.47-0.02,0.94-0.02,1.41-0.02c12.24,0,24.47,0,36.71,0
			c0.63,0,1.26-0.01,1.88,0.05c3.61,0.35,6.23,3.67,5.71,7.27c-0.11,0.77-0.34,1.53-0.63,2.25c-2.8,7.06-5.62,14.11-8.44,21.17
			c-0.12,0.29-0.23,0.58-0.37,0.86c-1.79,3.63-4.68,5.68-8.75,5.69c-13.65,0.05-27.3-0.05-40.95,0.07
			c-3.51,0.03-6.92-3.14-5.21-7.61c1.04-2.71,2.02-5.44,3.21-8.08c2.2-4.89,6.01-7.53,11.44-7.55c10.12-0.04,20.24-0.01,30.36-0.01
			C271.24,108.49,272.09,108.49,273.09,108.49z M269.77,116.63c-1.08,0-1.83,0-2.58,0c-3.29,0-6.58,0-9.87,0
			c-4.39,0-8.77,0.01-13.16-0.01c-1.12,0-2.3-0.02-2.96,1.03c-0.73,1.16-1.43,2.38-1.4,4.05c0.87,0,1.64,0,2.41,0
			c4.7,0,9.4,0,14.1,0c3.06,0,6.11-0.02,9.17,0.01c1.17,0.01,2.24-0.2,2.79-1.33C268.8,119.29,269.19,118.11,269.77,116.63z"/>
		<path class="st1" d="M485.96,131.69c-1.29,2.94-2.57,5.62-3.65,8.38c-0.96,2.46-2.63,3.5-5.24,3.4c-2.9-0.11-5.8-0.02-8.7-0.03
			c-0.6,0-1.2-0.09-1.96-0.15c0.22-0.67,0.36-1.19,0.57-1.68c5.14-11.93,10.26-23.87,15.45-35.78c2.74-6.3,7.62-9.99,14.36-11.2
			c1.15-0.21,2.34-0.22,3.51-0.22c9.33,0,18.66,0.17,27.98-0.03c5.43-0.12,9.92,5.2,7.23,11.06c-2.06,4.48-3.83,9.09-5.92,13.56
			c-3.84,8.23-10.31,12.58-19.47,12.67c-7.13,0.07-14.27,0.01-21.4,0.01C487.85,131.69,487,131.69,485.96,131.69z M491.18,120.11
			c0.6,0.09,1.04,0.21,1.49,0.21c6.43,0.01,12.86-0.02,19.3,0.03c1.74,0.01,2.78-0.78,3.42-2.31c1.54-3.68,3.13-7.35,4.67-11.04
			c0.19-0.47,0.21-1.01,0.31-1.54c-0.37-0.11-0.59-0.23-0.81-0.23c-6.67-0.01-13.33,0-20-0.03c-1.65-0.01-2.61,0.82-3.22,2.25
			c-1.6,3.74-3.22,7.48-4.81,11.23C491.35,119.09,491.31,119.55,491.18,120.11z"/>
		<path class="st1" d="M430.05,131.69c-4.78,0-9.56,0.05-14.34-0.02c-4.09-0.06-7.23-2.76-7.72-6.79c-0.17-1.4,0.09-3.01,0.63-4.33
			c2.1-5.14,4.26-10.27,6.66-15.28c3.35-6.99,9.08-10.69,16.82-10.81c9.72-0.15,19.44-0.05,29.16,0.01c5.66,0.03,9.15,5.23,7,10.47
			c-2.05,5-4.09,10.01-6.48,14.85c-3.75,7.6-10,11.65-18.54,11.88C438.83,131.79,434.44,131.69,430.05,131.69z M423.71,120.1
			c0.6,0.09,1.04,0.22,1.48,0.23c6.43,0.01,12.87-0.01,19.3,0.03c1.72,0.01,2.79-0.71,3.44-2.28c1.53-3.69,3.13-7.35,4.68-11.03
			c0.2-0.47,0.24-1.02,0.38-1.64c-0.62-0.08-1.07-0.18-1.52-0.18c-6.35-0.01-12.71,0.02-19.06-0.03c-1.84-0.02-2.89,0.8-3.57,2.45
			c-1.5,3.62-3.09,7.2-4.63,10.8C423.99,118.91,423.89,119.44,423.71,120.1z"/>
		<path class="st1" d="M661.57,131.69c-4.62,0-9.26-0.16-13.87,0.04c-6.08,0.26-10.2-6.02-7.58-11.57c2.27-4.81,4.16-9.8,6.44-14.61
			c3.4-7.16,9.16-11,17.12-11.1c9.64-0.12,19.28-0.04,28.92,0.01c5.7,0.03,9.22,5.13,7.09,10.39c-2.06,5.08-4.13,10.17-6.56,15.06
			c-3.73,7.51-9.95,11.5-18.39,11.75C670.35,131.79,665.96,131.69,661.57,131.69z M655.15,120.08c0.56,0.13,0.78,0.22,1.01,0.23
			c6.67,0.01,13.33,0,20,0.03c1.53,0.01,2.53-0.68,3.11-2.05c1.65-3.89,3.31-7.78,4.94-11.68c0.14-0.33,0.13-0.72,0.22-1.24
			c-0.74-0.06-1.35-0.15-1.96-0.15c-6.12-0.01-12.24,0.05-18.35-0.04c-2.04-0.03-3.2,0.79-3.95,2.62
			c-1.42,3.48-2.95,6.91-4.41,10.38C655.52,118.73,655.39,119.32,655.15,120.08z"/>
		<path class="st1" d="M581.26,94.45c4.86,0,9.72,0.15,14.57-0.04c4.91-0.19,9.74,4.58,7.19,10.73c-2.01,4.84-3.99,9.71-6.28,14.42
			c-3.8,7.79-10.13,11.99-18.87,12.1c-8.85,0.12-17.72-0.17-26.56,0.09c-6.12,0.18-10.52-5.86-7.65-11.87
			c2.2-4.58,4.05-9.33,6.16-13.96c3.42-7.52,9.32-11.36,17.57-11.5c4.62-0.08,9.25-0.01,13.87-0.01
			C581.26,94.43,581.26,94.44,581.26,94.45z M587.89,105.48c-0.46-0.12-0.75-0.25-1.04-0.26c-6.67-0.01-13.33-0.01-20-0.02
			c-1.54,0-2.46,0.8-3.04,2.15c-1.64,3.81-3.3,7.62-4.92,11.44c-0.16,0.39-0.11,0.86-0.16,1.32c0.36,0.09,0.58,0.2,0.8,0.2
			c6.67,0.01,13.33,0,20,0.03c1.64,0.01,2.62-0.78,3.23-2.23c1.52-3.61,3.07-7.2,4.59-10.81
			C587.6,106.75,587.7,106.15,587.89,105.48z"/>
		<path class="st1" d="M405.76,94.51c-1.35,3.06-2.46,5.81-3.75,8.46c-0.79,1.62-2.31,2.25-4.1,2.24c-2.9-0.02-5.8-0.01-8.7-0.01
			c-5.64-0.01-11.29,0.04-16.93-0.05c-2.01-0.03-3.23,0.74-3.98,2.58c-1.43,3.47-2.96,6.91-4.42,10.37
			c-0.26,0.61-0.38,1.28-0.66,2.24c10.64,0,20.94,0,31.6,0c-0.55,1.4-0.95,2.47-1.4,3.53c-0.7,1.66-1.41,3.31-2.15,4.95
			c-0.81,1.81-2.19,2.81-4.22,2.82c-10.74,0.01-21.48,0.11-32.21,0.01c-5.28-0.05-8.95-5.36-7.02-10.28
			c2.29-5.82,4.67-11.65,7.59-17.16c3.37-6.36,9.06-9.67,16.3-9.76c10.66-0.12,21.32-0.03,31.98-0.03
			C404.24,94.42,404.78,94.46,405.76,94.51z"/>
		<path class="st2" d="M78.68,106.92c-0.02,10.21-8.38,18.52-18.6,18.5c-10.18-0.02-18.57-8.46-18.53-18.61
			c0.05-10.2,8.41-18.49,18.64-18.47C70.44,88.35,78.71,96.66,78.68,106.92z"/>
		<path class="st1" d="M307.41,131.59c-4.99,0-9.68,0-14.57,0c0.21-0.72,0.34-1.32,0.56-1.87c3.16-7.93,6.25-15.88,9.51-23.76
			c3.09-7.48,8.73-11.5,16.89-11.6c8.31-0.1,16.62,0,24.93,0.02c0.39,0,0.77,0.06,1.35,0.11c-0.15,0.58-0.21,1.1-0.4,1.56
			c-0.78,1.88-1.66,3.72-2.39,5.62c-0.93,2.45-2.66,3.51-5.25,3.48c-5.17-0.05-10.35,0.09-15.52-0.06
			c-2.66-0.08-4.17,0.89-5.18,3.37c-2.88,7.03-5.95,13.97-8.95,20.95C308.09,130.12,307.76,130.83,307.41,131.59z"/>
		<path class="st1" d="M642.55,80.99c-7.29,17.01-14.49,33.79-21.7,50.6c-4.83,0-9.51,0-14.4,0c0.14-0.59,0.2-1.1,0.39-1.54
			c6.58-15.3,13.18-30.6,19.75-45.91c0.99-2.3,2.63-3.36,5.12-3.32c3.05,0.05,6.11,0.01,9.16,0.02
			C641.31,80.84,641.75,80.92,642.55,80.99z"/>
		<path class="st1" d="M26.24,129.77c4.28-5.53,14.09-7.89,21.78-3.91c8.17,4.23,11.76,13.74,9.25,21.48
			C49.9,148.32,33.88,142.2,26.24,129.77z"/>
		<path class="st1" d="M57.65,65.92c2.43,7.28-0.55,16.85-8.71,21.34c-7.95,4.37-17.58,2.04-22.48-3.82
			C34.15,72.87,44.43,66.98,57.65,65.92z"/>
		<path class="st1" d="M63.66,66.32c11.03-0.2,25.13,8.21,30.6,18.04c-3.49,4.75-13.5,8.3-22.25,3.28
			C64.48,83.32,60.69,73.69,63.66,66.32z"/>
		<path class="st1" d="M23.45,124.6c-5.6-9.13-5.76-25.92-0.01-35.55c7.97,1.37,14.32,9.46,14.17,18.04
			C37.47,115.63,30.96,123.68,23.45,124.6z"/>
		<path class="st1" d="M94.01,130.03c-7.68,10.61-17.88,16.56-30.84,17.73c-2.97-7.2,0.67-16.66,7.91-21.05
			C79.72,121.47,89.81,124.71,94.01,130.03z"/>
		<path class="st1" d="M96.9,124.96c-8.48-2.15-14.18-9.74-13.94-18.42c0.22-8.25,6.3-15.71,14.01-17.21
			C102.51,98.33,102.84,114.66,96.9,124.96z"/>
	</g>
</g>
</svg>
