<?xml version="1.0" encoding="utf-8"?>
<!-- Generator: Adobe Illustrator 27.2.0, SVG Export Plug-In . SVG Version: 6.00 Build 0)  -->
<svg version="1.1" id="Capa_1" xmlns="http://www.w3.org/2000/svg" xmlns:xlink="http://www.w3.org/1999/xlink" x="0px" y="0px"
	 viewBox="0 0 128 128" style="enable-background:new 0 0 128 128;" xml:space="preserve">
<style type="text/css">
	.st0{display:none;fill:none;}
	.st1{fill:#139AD7;}
	.st2{fill:#A6C626;}
</style>
<path class="st0" d="M50.4,78.5c-9.9,0.4-19.5,2.7-28.5,6.9l24.2-65.7c0.7-2,1.9-3.2,3.4-3.2h29c1.5,0,2.7,1.2,3.4,3.2l24.2,65.7
	c0,0-11.6-7-28.5-7L67,45.5c-0.4-1.7-1.6-2.8-2.9-2.8c-1.3,0-2.5,1.1-2.9,2.7L50.4,78.5z M45.1,86.5c-2,6.6-0.6,15.8,4.2,20.2
	c0.1-0.2,0.1-0.5,0.2-0.7c0.5-2.7,2.9-4.6,5.7-4.5c2.8,0.1,4.3,1.5,4.7,4.7c0.2,1.1,0.2,2.3,0.2,3.5v0.4c0,2.7,0.7,5.2,2.2,7.4
	c1.4,2.2,3.4,3.9,5.7,4.9v-0.3l-0.2-0.3c-1.8-5.6-0.5-9.5,4.4-12.8l1.5-1c1.1-0.7,2.2-1.4,3.2-2.2c3.8-2.6,6.3-6.8,6.8-11.4
	c0.3-2,0.1-4-0.6-6L82.3,89l-1.6,1c-7,3.2-14.8,4.2-22.4,2.7C53.3,92,48.6,90.7,45.1,86.5z"/>
<path class="st1" d="M64.1,17.6c0.4,0,0.9,0.1,1.3,0.1c0.6,0.1,1.2,0.1,1.8,0.2c0.7,0.1,1.4,0.2,2,0.3c1.1,0.2,2.2,0.5,3.2,0.8
	c3.7,1.1,7.1,2.7,10.3,4.7c2.1,1.3,4.1,2.9,5.9,4.6c0.1,0.1,0.3,0.3,0.4,0.4c0.1,0.1,0,0.1,0,0.2c0,0-0.1,0.1-0.1,0.1
	c-0.1,0.1-0.1,0.1-0.2,0.2c-1.6,1.6-3.2,3.1-4.9,4.7c-1.2,1.1-2.4,2.3-3.6,3.4c-0.7,0.6-1.4,1.3-2,1.9c-0.1,0.1-0.1,0.1-0.2,0.2
	c-0.1,0-0.2-0.1-0.2-0.1c-0.6-0.5-1.1-0.9-1.7-1.3c-2.1-1.4-4.3-2.6-6.7-3.4c-1-0.3-2-0.6-3.1-0.8c-0.8-0.1-1.6-0.2-2.4-0.3
	c-0.5,0-1.1-0.1-1.6,0c-0.7,0-1.4,0.1-2.1,0.1c-1.7,0.2-3.3,0.6-4.9,1.1c-2.2,0.8-4.2,1.9-6.1,3.3c-3,2.2-5.3,5-7,8.3
	c-1,1.9-1.7,3.8-2.1,5.8c-0.1,0.6-0.2,1.2-0.3,1.7c-0.2,1.4-0.2,2.8-0.1,4.2c0,0.6,0.1,1.2,0.2,1.8c0.6,3.8,2,7.2,4.1,10.4
	c0.7,1.1,1.6,2.1,2.6,3c1,1,2.2,1.8,3.3,2.6c1.7,1.1,3.5,2,5.5,2.7c1.1,0.4,2.2,0.6,3.3,0.8c0.7,0.1,1.4,0.2,2.1,0.2
	c0.7,0.1,1.4,0.1,2.1,0c0.6,0,1.2-0.1,1.7-0.1c0.6-0.1,1.2-0.2,1.8-0.3c1.3-0.2,2.5-0.6,3.7-1c2.7-1,5.2-2.5,7.4-4.4
	c0.4-0.4,0.9-0.8,1.3-1.2c0.1-0.1,0.1-0.1,0.2-0.2c0,0,0.1,0,0.1,0c0,0,0.1,0,0.1,0.1c0.2,0.2,0.4,0.4,0.6,0.6
	c1.5,1.4,3,2.9,4.5,4.3c1.1,1.1,2.2,2.1,3.4,3.2c0.8,0.8,1.7,1.6,2.5,2.4c0.1,0.1,0.2,0.2,0.3,0.3c0,0.1-0.1,0.2-0.2,0.2
	c-0.3,0.4-0.7,0.7-1,1.1c-2.4,2.4-4.9,4.9-7.3,7.3c-2.6,2.6-5.1,5.2-7.7,7.7c-3.5,3.6-7.1,7.1-10.6,10.7c-0.3,0.3-0.7,0.7-1,1
	c-0.1,0.1-0.1,0.1-0.2,0.2c0,0-0.1,0-0.1,0c-0.1-0.1-0.1-0.1-0.2-0.2c-1-1.1-2.1-2.1-3.1-3.2c-1.4-1.4-2.8-2.8-4.2-4.3
	c-1.5-1.5-2.9-3-4.4-4.5c-1.4-1.4-2.8-2.8-4.2-4.2c-1.7-1.8-3.5-3.5-5.2-5.3c-1-1-2-2-3-3c-0.2-0.2-0.4-0.4-0.6-0.5
	c-1.6-1.5-3.2-3.1-4.5-4.8c-2.2-2.8-4.1-5.8-5.5-9c-1-2.1-1.7-4.3-2.4-6.5c-0.3-1.2-0.6-2.3-0.8-3.5c-0.2-0.8-0.3-1.6-0.4-2.4
	c-0.1-0.8-0.2-1.6-0.3-2.5c-0.1-0.7-0.1-1.3-0.1-2c0-0.1,0-0.2,0-0.4c0-0.1,0-0.2,0-0.3c0-0.5,0-1,0-1.5c0-0.1,0-0.2,0-0.3
	c0-0.6,0-1.2,0.1-1.7c0.1-0.6,0.1-1.2,0.2-1.7c0.1-0.7,0.2-1.4,0.3-2.2c0.2-1.3,0.6-2.7,1-4c0.9-3,2.3-5.8,3.9-8.4
	c1.5-2.4,3.3-4.5,5.4-6.5c0.9-0.9,1.9-1.7,2.9-2.5c3.3-2.6,7-4.6,11-6c1.9-0.7,3.8-1.2,5.8-1.6c0.7-0.1,1.4-0.3,2.1-0.4
	c0.4-0.1,0.9-0.1,1.3-0.2c0.5-0.1,1-0.1,1.5-0.1c0.1,0,0.2,0,0.3,0c0.3,0,0.6,0,0.9-0.1c0,0,0.1,0,0.1,0c0.1,0,0.2,0,0.3,0
	c0.6,0,1.2,0,1.7,0c0.3,0,0.5,0,0.8,0C63.5,17.6,63.8,17.6,64.1,17.6z"/>
<path class="st2" d="M76.9,56.4c0,7.5-6,13.5-13.5,13.5c-7.5,0-13.5-6.1-13.5-13.5c0-7.5,6-13.5,13.5-13.5
	C70.8,42.9,76.8,48.9,76.9,56.4z"/>
</svg>
